# xmcd
#
# Track frame offsets:
# 182
# 16285
# 32842
# 59712
# 73915
# 97270
# 117502
# 135625
# 152572
# 167525
# 181765
# 202700
#
# Disc length: 2940 seconds
#
#
# Revision: 0
# Processed by: cddbd v1.5.2PL0 Copyright (c) Steve Scherf et al.
# Submitted via: FreeRIP 2.943 
#
DISCID=a40b7a0c
DTITLE=Croatan - A Hundred More Verses About Agamemnon
DYEAR=1995
DGENRE=Oldies
TTITLE0=I Could Regret
TTITLE1=Crawl Back
TTITLE2=Divine Intervention
TTITLE3=Dirge
TTITLE4=Standing Face to Face With Reason (surrounded by myself)
TTITLE5=Sister of Pain
TTITLE6=Climbing Olympus
TTITLE7=Alias
TTITLE8=Butterknife
TTITLE9=Overload-Overlord
TTITLE10=Penis--the Master Subliminal
TTITLE11=Nostalgia as a Weapon
EXTD=ripped/spread by z
EXTT0=
EXTT1=
EXTT2=
EXTT3=
EXTT4=
EXTT5=
EXTT6=
EXTT7=
EXTT8=
EXTT9=
EXTT10=
EXTT11=
PLAYORDER=
